<svg width="18" height="12" viewBox="0 0 18 12" fill="none" xmlns="http://www.w3.org/2000/svg">
<path fill-rule="evenodd" clip-rule="evenodd" d="M0.763164 5.37336C3.05067 2.09439 6.01666 0.375 8.98805 0.375C12.4778 0.375 15.484 2.64847 17.2575 5.38772L17.2584 5.38901C17.3757 5.57137 17.4381 5.78366 17.4381 6.00053C17.4381 6.21697 17.376 6.42885 17.259 6.61097C15.487 9.38553 12.5003 11.625 8.98805 11.625C5.43844 11.625 2.50932 9.39023 0.741634 6.62378C0.621525 6.43727 0.559229 6.21941 0.562599 5.99757C0.565978 5.77518 0.635201 5.55879 0.761521 5.37573L0.763158 5.37335L0.763164 5.37336ZM1.68747 6.01467L1.68904 6.01709L1.68903 6.0171C3.32173 8.57283 5.93857 10.5 8.98805 10.5C12.0034 10.5 14.6766 8.56464 16.3113 6.00487L16.3124 6.00319C16.3129 6.0024 16.3131 6.00147 16.3131 6.00053C16.3131 5.99962 16.3129 5.99873 16.3124 5.99796C14.6715 3.46435 11.9764 1.5 8.98805 1.5C6.47993 1.5 3.82516 2.95167 1.68747 6.01467Z" fill="#718096"/>
</svg>
