<svg width="11" height="16" viewBox="0 0 11 16" fill="none" xmlns="http://www.w3.org/2000/svg">
<path d="M9 6H3.5V3.5C3.5 2.96957 3.71071 2.46086 4.08579 2.08579C4.46086 1.71071 4.96957 1.5 5.5 1.5C6.03043 1.5 6.53914 1.71071 6.91421 2.08579C7.28929 2.46086 7.5 2.96957 7.5 3.5C7.5 3.63261 7.55268 3.75979 7.64645 3.85355C7.74021 3.94732 7.86739 4 8 4C8.13261 4 8.25979 3.94732 8.35355 3.85355C8.44732 3.75979 8.5 3.63261 8.5 3.5C8.5 2.70435 8.18393 1.94129 7.62132 1.37868C7.05871 0.81607 6.29565 0.5 5.5 0.5C4.70435 0.5 3.94129 0.81607 3.37868 1.37868C2.81607 1.94129 2.5 2.70435 2.5 3.5V6H2C1.46974 6.00058 0.961373 6.21148 0.586426 6.58643C0.211479 6.96137 0.000579017 7.46974 0 8V13.5C0.000579017 14.0303 0.211479 14.5386 0.586426 14.9136C0.961373 15.2885 1.46974 15.4994 2 15.5H9C9.53026 15.4994 10.0386 15.2885 10.4136 14.9136C10.7885 14.5386 10.9994 14.0303 11 13.5V8C10.9994 7.46974 10.7885 6.96137 10.4136 6.58643C10.0386 6.21148 9.53026 6.00058 9 6V6Z" fill="white"/>
</svg>
